<?xml version="1.0" encoding="utf-8"?>
<svg xmlns="http://www.w3.org/2000/svg"
 xmlns:xlink="http://www.w3.org/1999/xlink" width="600" height="400" >
<defs>
    <style type="text/css"><![CDATA[
        line {
        stroke: #000;
        stroke-width: 5px;
        }
    ]]></style></defs>
<rect x="0" y="0" width="136.26935283385438" height="34.273259611779714" style="fill: yellow"/>
<rect x="136.26935283385438" y="0" width="272.13144515991877" height="34.273259611779714" style="fill: yellow"/>
<rect x="408.40079799377315" y="0" width="191.59920200622685" height="34.273259611779714" style="fill: white"/>
<rect x="0" y="34.273259611779714" width="136.26935283385438" height="73.81311790028593" style="fill: red"/>
<rect x="136.26935283385438" y="34.273259611779714" width="272.13144515991877" height="73.81311790028593" style="fill: white"/>
<rect x="408.40079799377315" y="34.273259611779714" width="191.59920200622685" height="180.12026431441438" style="fill: white"/>
<rect x="0" y="108.08637751206564" width="136.26935283385438" height="261.65331493663666" style="fill: blue"/>
<rect x="136.26935283385438" y="108.08637751206564" width="96.53398288099649" height="261.65331493663666" style="fill: red"/>
<rect x="232.80333571485087" y="108.08637751206564" width="68.43475403314048" height="261.65331493663666" style="fill: red"/>
<rect x="301.23808974799135" y="108.08637751206564" width="107.1627082457818" height="261.65331493663666" style="fill: blue"/>
<rect x="408.40079799377315" y="214.3935239261941" width="191.59920200622685" height="38.08139769889192" style="fill: red"/>
<rect x="408.40079799377315" y="252.474921625086" width="191.59920200622685" height="55.450837333404735" style="fill: yellow"/>
<rect x="408.40079799377315" y="307.92575895849075" width="191.59920200622685" height="61.813933490211525" style="fill: yellow"/>
<rect x="0" y="369.73969244870227" width="232.80333571485087" height="30.26030755129773" style="fill: white"/>
<rect x="232.80333571485087" y="369.73969244870227" width="68.43475403314048" height="30.26030755129773" style="fill: white"/>
<rect x="301.23808974799135" y="369.73969244870227" width="298.76191025200865" height="30.26030755129773" style="fill: white"/>
<line x1="0" y1="34.273259611779714" x2="600" y2="34.273259611779714"/>
<line x1="0" y1="108.08637751206564" x2="408.40079799377315" y2="108.08637751206564"/>
<line x1="408.40079799377315" y1="214.3935239261941" x2="600" y2="214.3935239261941"/>
<line x1="408.40079799377315" y1="252.474921625086" x2="600" y2="252.474921625086"/>
<line x1="408.40079799377315" y1="307.92575895849075" x2="600" y2="307.92575895849075"/>
<line x1="0" y1="369.73969244870227" x2="600" y2="369.73969244870227"/>
<line x1="136.26935283385438" y1="0" x2="136.26935283385438" y2="369.73969244870227"/>
<line x1="232.80333571485087" y1="108.08637751206564" x2="232.80333571485087" y2="400"/>
<line x1="301.23808974799135" y1="108.08637751206564" x2="301.23808974799135" y2="400"/>
<line x1="408.40079799377315" y1="0" x2="408.40079799377315" y2="369.73969244870227"/>
</svg>